<?xml version="1.0" encoding="utf-8" ?>
<svg xmlns="http://www.w3.org/2000/svg" xmlns:cc="http://creativecommons.org/ns" xmlns:dc="http://purl.org/dc/elements/1.1/" xmlns:ev="http://www.w3.org/2001/xml-events" xmlns:inkscape="http://www.inkscape.org/namespaces/inkscape" xmlns:rdf="http://www.w3.org/1999/02/22-rdf-syntax-ns" xmlns:sodipodi="http://sodipodi.sourceforge.net/DTD/sodipodi-0.dtd" xmlns:xlink="http://www.w3.org/1999/xlink" baseProfile="tiny" height="4.5cm" version="1.2" viewBox="0 0 170.07874015748033 170.07874015748033" width="4.5cm">
  <metadata>
    <rdf:RDF>
      <cc:Work>
        <dc:format>image/svg+xml</dc:format>
        <dc:source>vpype read truchet.svg splitall scaleto 45mm 45mm layout tight snap 5mm penwidth .05mm linemerge linesort write truchet2.svg
</dc:source>
        <dc:date>2025-01-19T12:51:11.450831</dc:date>
      </cc:Work>
    </rdf:RDF>
  </metadata>
  <defs/>
  <g fill="none" id="layer1" inkscape:groupmode="layer" inkscape:label="1" stroke="#ff00d1" stroke-width="0.189" style="display:inline">
    <polyline points="132.2835,0.0 132.2835,18.8976 132.2835,18.8976 113.3858,18.8976 113.3858,18.8976 113.3858,0.0"/>
    <line x1="151.1811" x2="151.1811" y1="0.0" y2="37.7953"/>
    <polyline points="170.0787,37.7953 94.4882,37.7953 94.4882,37.7953 94.4882,18.8976 94.4882,18.8976 37.7953,18.8976 37.7953,18.8976 37.7953,0.0"/>
    <polyline points="18.8976,0.0 18.8976,18.8976 18.8976,18.8976 0.0,18.8976"/>
    <polyline points="0.0,37.7953 18.8976,37.7953 18.8976,37.7953 18.8976,56.6929"/>
    <line x1="37.7953" x2="0.0" y1="56.6929" y2="56.6929"/>
    <polyline points="37.7953,75.5906 18.8976,75.5906 18.8976,75.5906 18.8976,94.4882 18.8976,94.4882 37.7953,94.4882"/>
    <polyline points="56.6929,94.4882 94.4882,94.4882 94.4882,94.4882 94.4882,132.2835 94.4882,132.2835 113.3858,132.2835 113.3858,132.2835 113.3858,170.0787"/>
    <polyline points="132.2835,170.0787 132.2835,132.2835 132.2835,132.2835 170.0787,132.2835"/>
    <polyline points="170.0787,151.1811 151.1811,151.1811 151.1811,151.1811 151.1811,170.0787"/>
    <polyline points="170.0787,113.3858 151.1811,113.3858 151.1811,113.3858 151.1811,56.6929"/>
    <polyline points="132.2835,56.6929 132.2835,113.3858 132.2835,113.3858 113.3858,113.3858 113.3858,113.3858 113.3858,94.4882 113.3858,94.4882 132.2835,94.4882"/>
    <polyline points="132.2835,75.5906 113.3858,75.5906 113.3858,75.5906 113.3858,56.6929 113.3858,56.6929 170.0787,56.6929"/>
    <line x1="170.0787" x2="151.1811" y1="18.8976" y2="18.8976"/>
    <polyline points="75.5906,56.6929 75.5906,37.7953 75.5906,37.7953 37.7953,37.7953 37.7953,37.7953 37.7953,113.3858 37.7953,113.3858 0.0,113.3858"/>
    <polyline points="0.0,132.2835 56.6929,132.2835 56.6929,132.2835 56.6929,37.7953"/>
    <line x1="56.6929" x2="56.6929" y1="18.8976" y2="0.0"/>
    <polyline points="56.6929,56.6929 94.4882,56.6929 94.4882,56.6929 94.4882,75.5906 94.4882,75.5906 56.6929,75.5906"/>
    <polyline points="56.6929,113.3858 75.5906,113.3858 75.5906,113.3858 75.5906,151.1811 75.5906,151.1811 56.6929,151.1811 56.6929,151.1811 56.6929,170.0787"/>
    <line x1="37.7953" x2="37.7953" y1="170.0787" y2="132.2835"/>
    <line x1="18.8976" x2="18.8976" y1="132.2835" y2="170.0787"/>
    <line x1="18.8976" x2="0.0" y1="151.1811" y2="151.1811"/>
  </g>
</svg>
